<mxfile host="65bd71144e" modified="2023-11-23T13:11:49.080Z" agent="Mozilla/5.0 (Windows NT 10.0; Win64; x64) AppleWebKit/537.36 (KHTML, like Gecko) Code/1.84.2 Chrome/114.0.5735.289 Electron/25.9.2 Safari/537.36" etag="rwWUy1rqe8KWqS0Fxacq" version="22.1.3" type="embed">
    <diagram id="Fc0HPpUWH6O65rgKbgAe" name="Page-1">
        <mxGraphModel dx="1838" dy="553" grid="1" gridSize="10" guides="1" tooltips="1" connect="1" arrows="1" fold="1" page="1" pageScale="1" pageWidth="850" pageHeight="1100" background="#ffffff" math="0" shadow="0">
            <root>
                <mxCell id="0"/>
                <mxCell id="1" parent="0"/>
                <mxCell id="21" style="edgeStyle=none;html=1;exitX=0.5;exitY=1;exitDx=0;exitDy=0;entryX=0.5;entryY=0;entryDx=0;entryDy=0;fontSize=14;" parent="1" source="4" target="11" edge="1">
                    <mxGeometry relative="1" as="geometry"/>
                </mxCell>
                <mxCell id="4" value="Task ID: 2&lt;br style=&quot;font-size: 14px;&quot;&gt;Type: PreCall" style="rounded=1;whiteSpace=wrap;html=1;fontSize=14;container=0;" parent="1" vertex="1">
                    <mxGeometry x="120" y="285.38461538461536" width="120" height="40.61538461538461" as="geometry"/>
                </mxCell>
                <mxCell id="24" style="edgeStyle=none;html=1;exitX=0.5;exitY=1;exitDx=0;exitDy=0;entryX=0.5;entryY=0;entryDx=0;entryDy=0;fontSize=14;" parent="1" source="5" target="19" edge="1">
                    <mxGeometry relative="1" as="geometry">
                        <mxPoint x="210" y="580" as="targetPoint"/>
                    </mxGeometry>
                </mxCell>
                <mxCell id="5" value="Task ID: 5&lt;br&gt;Type: PostCall" style="rounded=1;whiteSpace=wrap;html=1;fontSize=14;container=0;" parent="1" vertex="1">
                    <mxGeometry x="120" y="478.15538461538466" width="120" height="40.61538461538461" as="geometry"/>
                </mxCell>
                <mxCell id="9" style="edgeStyle=none;html=1;exitX=0.5;exitY=1;exitDx=0;exitDy=0;entryX=0.5;entryY=0;entryDx=0;entryDy=0;fontSize=14;" parent="1" source="6" target="4" edge="1">
                    <mxGeometry relative="1" as="geometry"/>
                </mxCell>
                <mxCell id="6" value="Task ID: 1&lt;br style=&quot;font-size: 14px;&quot;&gt;Type: HostLocal" style="rounded=1;whiteSpace=wrap;html=1;fontSize=14;container=0;" parent="1" vertex="1">
                    <mxGeometry x="120" y="217.69230769230768" width="120" height="40.61538461538461" as="geometry"/>
                </mxCell>
                <mxCell id="22" style="edgeStyle=none;html=1;exitX=0.5;exitY=1;exitDx=0;exitDy=0;entryX=0.5;entryY=0;entryDx=0;entryDy=0;fontSize=14;" parent="1" source="11" target="12" edge="1">
                    <mxGeometry relative="1" as="geometry"/>
                </mxCell>
                <mxCell id="11" value="Task ID: 3&lt;br style=&quot;font-size: 14px;&quot;&gt;Type: MultiPair" style="rounded=1;whiteSpace=wrap;html=1;fontSize=14;container=0;fillColor=#d5e8d4;strokeColor=#82b366;" parent="1" vertex="1">
                    <mxGeometry x="120" y="346.30769230769226" width="120" height="40.61538461538461" as="geometry"/>
                </mxCell>
                <mxCell id="23" style="edgeStyle=none;html=1;exitX=0.5;exitY=1;exitDx=0;exitDy=0;entryX=0.5;entryY=0;entryDx=0;entryDy=0;fontSize=14;" parent="1" source="12" target="5" edge="1">
                    <mxGeometry relative="1" as="geometry"/>
                </mxCell>
                <mxCell id="12" value="Task ID: 4&lt;br style=&quot;font-size: 14px;&quot;&gt;Type: MPCallback" style="rounded=1;whiteSpace=wrap;html=1;fontSize=14;container=0;fillColor=#fff2cc;strokeColor=#d6b656;" parent="1" vertex="1">
                    <mxGeometry x="120" y="420.0015384615385" width="120" height="40.61538461538461" as="geometry"/>
                </mxCell>
                <mxCell id="19" value="Task ID: 6&lt;br&gt;Type: HostLocal" style="rounded=1;whiteSpace=wrap;html=1;fontSize=14;container=0;" parent="1" vertex="1">
                    <mxGeometry x="120" y="550.0046153846154" width="120" height="40.61538461538461" as="geometry"/>
                </mxCell>
                <mxCell id="45" value="" style="edgeStyle=none;html=1;entryX=0.5;entryY=0;entryDx=0;entryDy=0;" parent="1" source="35" target="37" edge="1">
                    <mxGeometry relative="1" as="geometry">
                        <mxPoint x="520" y="416.4515384615385" as="targetPoint"/>
                    </mxGeometry>
                </mxCell>
                <mxCell id="35" value="Task ID: 2&lt;br style=&quot;font-size: 14px;&quot;&gt;Type: PreCall" style="rounded=1;whiteSpace=wrap;html=1;fontSize=14;container=0;" parent="1" vertex="1">
                    <mxGeometry x="460" y="281.83461538461535" width="120" height="40.61538461538461" as="geometry"/>
                </mxCell>
                <mxCell id="36" style="edgeStyle=none;html=1;exitX=0.5;exitY=1;exitDx=0;exitDy=0;entryX=0.5;entryY=0;entryDx=0;entryDy=0;fontSize=14;" parent="1" source="37" target="44" edge="1">
                    <mxGeometry relative="1" as="geometry">
                        <mxPoint x="550" y="576.45" as="targetPoint"/>
                    </mxGeometry>
                </mxCell>
                <mxCell id="37" value="Task ID: 5&lt;br&gt;Type: PostCall&lt;br&gt;Ext. dep: 4" style="rounded=1;whiteSpace=wrap;html=1;fontSize=14;container=0;" parent="1" vertex="1">
                    <mxGeometry x="460" y="436.45" width="120" height="78.77" as="geometry"/>
                </mxCell>
                <mxCell id="38" style="edgeStyle=none;html=1;exitX=0.5;exitY=1;exitDx=0;exitDy=0;entryX=0.5;entryY=0;entryDx=0;entryDy=0;fontSize=14;" parent="1" source="39" target="35" edge="1">
                    <mxGeometry relative="1" as="geometry"/>
                </mxCell>
                <mxCell id="39" value="Task ID: 1&lt;br style=&quot;font-size: 14px;&quot;&gt;Type: HostLocal" style="rounded=1;whiteSpace=wrap;html=1;fontSize=14;container=0;" parent="1" vertex="1">
                    <mxGeometry x="460" y="214.14230769230767" width="120" height="40.61538461538461" as="geometry"/>
                </mxCell>
                <mxCell id="44" value="Task ID: 6&lt;br&gt;Type: HostLocal" style="rounded=1;whiteSpace=wrap;html=1;fontSize=14;container=0;" parent="1" vertex="1">
                    <mxGeometry x="460" y="546.4546153846154" width="120" height="40.61538461538461" as="geometry"/>
                </mxCell>
                <mxCell id="46" value="Task 4" style="edgeStyle=none;html=1;entryX=0.875;entryY=-0.013;entryDx=0;entryDy=0;entryPerimeter=0;dashed=1;fontSize=14;" parent="1" target="37" edge="1">
                    <mxGeometry relative="1" as="geometry">
                        <mxPoint x="620" y="376.45" as="sourcePoint"/>
                        <mxPoint x="530" y="446.45" as="targetPoint"/>
                    </mxGeometry>
                </mxCell>
                <mxCell id="48" value="" style="shape=flexArrow;endArrow=classic;html=1;endWidth=28;endSize=7;" parent="1" edge="1">
                    <mxGeometry width="50" height="50" relative="1" as="geometry">
                        <mxPoint x="280" y="403.34" as="sourcePoint"/>
                        <mxPoint x="410" y="403.34" as="targetPoint"/>
                    </mxGeometry>
                </mxCell>
                <mxCell id="49" value="Project onto CPS scheduler" style="text;html=1;strokeColor=none;fillColor=none;align=center;verticalAlign=middle;whiteSpace=wrap;rounded=0;fontSize=16;" parent="1" vertex="1">
                    <mxGeometry x="280" y="351.62" width="130" height="30" as="geometry"/>
                </mxCell>
                <mxCell id="50" value="" style="shape=curlyBracket;whiteSpace=wrap;html=1;rounded=1;flipH=1;labelPosition=right;verticalLabelPosition=middle;align=left;verticalAlign=middle;" parent="1" vertex="1">
                    <mxGeometry x="250" y="217.69" width="20" height="372.31" as="geometry"/>
                </mxCell>
                <mxCell id="51" value="" style="shape=curlyBracket;whiteSpace=wrap;html=1;rounded=1;labelPosition=left;verticalLabelPosition=middle;align=right;verticalAlign=middle;" parent="1" vertex="1">
                    <mxGeometry x="420" y="217.07" width="20" height="370" as="geometry"/>
                </mxCell>
            </root>
        </mxGraphModel>
    </diagram>
</mxfile>